<?xml version="1.0" standalone="no"?>
<!DOCTYPE svg PUBLIC "-//W3C//DTD SVG 20010904//EN"
 "http://www.w3.org/TR/2001/REC-SVG-20010904/DTD/svg10.dtd">
<svg version="1.0" xmlns="http://www.w3.org/2000/svg"
 width="345.000000pt" height="345.000000pt" viewBox="0 0 345.000000 345.000000"
 preserveAspectRatio="xMidYMid meet">
<metadata>
Created by potrace 1.16, written by Peter Selinger 2001-2019
</metadata>
<g transform="translate(0.000000,345.000000) scale(0.100000,-0.100000)"
fill="#000000" stroke="none">
<path d="M1625 3439 c-419 -18 -809 -192 -1115 -499 -566 -565 -670 -1441
-251 -2118 313 -508 873 -822 1466 -822 736 0 1402 480 1634 1177 162 489 102
1018 -167 1451 -260 418 -699 715 -1171 792 -148 24 -211 27 -396 19z m174
-904 c87 -15 176 -54 253 -110 79 -58 85 -140 18 -234 -58 -79 -235 -193 -381
-245 -25 -9 -54 -23 -64 -30 -17 -12 -14 -15 38 -26 81 -16 274 -83 345 -119
33 -16 74 -46 93 -65 18 -20 39 -36 45 -36 7 0 19 -17 29 -37 9 -21 26 -56 38
-78 14 -26 23 -64 25 -107 4 -59 1 -74 -28 -132 -29 -61 -116 -156 -142 -156
-6 0 -39 -25 -73 -55 -35 -30 -72 -55 -82 -55 -11 0 -28 -9 -39 -21 -23 -26
-67 -49 -91 -49 -10 0 -24 -9 -31 -20 -7 -11 -19 -20 -28 -20 -9 0 -27 -9 -41
-20 -14 -11 -40 -20 -58 -20 -18 0 -44 -9 -58 -20 -14 -11 -36 -20 -49 -20
-30 0 -96 -23 -140 -49 -45 -27 -154 -63 -182 -60 -11 2 -36 -5 -55 -15 -18
-10 -72 -24 -120 -31 -47 -8 -112 -20 -143 -26 -50 -11 -62 -11 -91 3 -29 14
-36 14 -48 3 -18 -18 -88 -22 -116 -7 -12 7 -33 12 -47 12 -16 0 -32 9 -42 25
-9 14 -24 24 -32 23 -18 -3 -42 36 -42 68 0 30 29 64 112 127 148 113 476 304
503 293 7 -2 25 6 40 20 14 13 32 24 39 24 7 0 54 23 104 50 128 71 364 160
424 160 47 0 87 -34 90 -75 2 -43 -37 -113 -67 -121 -14 -3 -31 -2 -38 3 -6 5
-48 9 -92 8 -85 -1 -82 0 -333 -99 -78 -31 -148 -56 -155 -56 -6 0 -25 -11
-42 -25 -16 -13 -75 -47 -130 -74 -111 -56 -185 -115 -167 -133 15 -15 86 -27
167 -28 63 0 242 35 300 59 11 4 54 18 95 31 41 13 94 31 116 41 23 10 55 21
70 25 29 7 211 99 228 115 6 5 20 9 31 9 12 0 36 16 54 35 17 19 40 35 51 35
11 0 44 21 74 48 101 87 144 122 155 122 6 0 11 9 11 19 0 11 4 22 9 25 5 3 9
24 9 45 1 35 -6 47 -46 87 -26 26 -70 58 -99 71 -73 34 -253 74 -353 79 -47 2
-96 7 -110 10 -14 4 -86 6 -160 5 -162 -1 -187 7 -182 59 10 93 75 144 262
205 140 45 316 139 448 238 41 31 52 45 52 67 0 54 -56 81 -204 100 -50 6 -93
13 -96 15 -3 2 -43 -1 -89 -6 -52 -6 -88 -6 -95 0 -7 6 -18 4 -30 -5 -11 -8
-39 -14 -63 -14 -46 0 -50 -6 -30 -48 26 -52 5 -128 -99 -351 -20 -42 -46
-103 -59 -136 -12 -33 -43 -103 -67 -155 -25 -52 -55 -122 -68 -155 -13 -33
-32 -71 -41 -85 -10 -14 -25 -52 -34 -85 -18 -67 -60 -182 -75 -205 -18 -28
-61 1 -118 80 -67 94 -66 101 20 281 36 74 70 145 76 159 7 14 16 33 22 43 5
9 15 25 20 35 6 9 22 42 38 72 15 30 33 61 40 68 6 7 12 22 12 32 0 11 11 27
25 36 18 12 24 22 19 36 -3 10 2 30 11 44 9 14 14 31 12 37 -6 16 39 117 64
143 10 11 19 34 19 52 0 25 6 35 24 44 14 6 27 17 30 24 9 22 -36 27 -105 11
-90 -22 -120 -28 -154 -32 -117 -14 -146 -19 -197 -37 -32 -11 -61 -17 -66
-14 -5 3 -25 -6 -44 -19 -20 -13 -48 -27 -64 -31 -16 -4 -56 -34 -91 -70 -35
-35 -72 -64 -82 -64 -28 0 -74 58 -67 84 3 12 6 27 6 34 0 17 78 101 110 117
34 17 184 55 221 55 15 0 30 4 34 9 10 17 138 54 215 63 146 16 165 20 195 33
27 12 137 31 225 38 120 10 395 5 469 -8z m1223 -32 c31 -27 19 -107 -25 -181
-20 -31 -45 -82 -57 -112 -11 -30 -28 -70 -36 -88 -8 -18 -12 -41 -9 -52 8
-24 33 -25 101 -6 58 18 209 23 244 9 14 -6 30 -8 36 -6 16 5 64 -54 64 -79 0
-38 -31 -86 -68 -105 -32 -16 -63 -18 -238 -18 -154 0 -205 -3 -217 -14 -27
-21 -67 -117 -67 -157 0 -56 -58 -214 -93 -254 -41 -47 -91 -59 -123 -29 -56
53 -66 155 -25 239 10 19 24 58 30 85 7 28 24 69 38 93 13 24 23 45 21 48 -3
2 -19 -1 -37 -7 -23 -8 -64 -8 -150 -1 -65 6 -128 8 -140 5 -34 -9 -78 15 -90
49 -20 56 -14 86 20 107 40 24 97 35 113 22 14 -12 302 -9 329 3 10 5 26 25
36 45 11 20 28 45 40 55 13 12 21 31 21 53 0 37 141 328 162 336 20 6 97 -19
120 -40z"/>
</g>
</svg>
